<?xml version="1.0" encoding="UTF-8"?>
<svg width="686px" height="97px" viewBox="0 0 686 97" version="1.1" xmlns="http://www.w3.org/2000/svg" xmlns:xlink="http://www.w3.org/1999/xlink">
    <!-- Generator: Sketch 50.2 (55047) - http://www.bohemiancoding.com/sketch -->
    <title>freepik-company</title>
    <desc>Created with Sketch.</desc>
    <defs></defs>
    <g id="Page-1" stroke="none" stroke-width="1" fill="none" fill-rule="evenodd">
        <g id="freepik-company" fill="#FFFFFF" fill-rule="nonzero">
            <g id="XMLID_2790_">
                <g id="XMLID_2792_">
                    <path d="M15.894921,24.5267176 C13.478893,27.0572519 11.3807634,29.8473282 9.72769166,32.8320611 L7.12092462,31.4694656 C6.73944651,29.7824427 5.14995441,28.6145038 3.43330294,28.8091603 C1.5894921,29.0038168 0.254318736,30.7557252 0.508637473,32.6374046 C0.699376525,34.519084 2.41602799,35.8816794 4.25983883,35.6221374 C4.64131694,35.5572519 4.95921536,35.4923664 5.27711378,35.2977099 L7.82030114,36.6603053 C6.42154809,39.8396947 5.40427315,43.148855 4.83205599,46.5877863 L9.02831514,47.3664122 C10.2999088,39.9045802 13.7967914,33.0916031 19.0103255,27.5763359 L15.894921,24.5267176 Z" id="XMLID_2800_"></path>
                    <path d="M46.5403287,11.4198473 C45.5866335,11.4198473 44.6329382,11.4847328 43.679243,11.4847328 L43.2977649,7.91603053 C44.3150398,7.07251908 44.9508366,5.70992366 44.7600976,4.21755725 C44.5057789,1.94656489 42.5348086,0.389312977 40.3095197,0.648854962 C38.0842308,0.908396947 36.5583183,2.91984733 36.8126371,5.19083969 C37.0033761,6.61832061 37.8934917,7.85114504 39.1015057,8.37022901 L39.4829838,11.9389313 C35.4774637,12.5877863 31.6626827,13.8206107 27.975061,15.6374046 L29.8188718,19.5305344 C35.0324059,17 40.6909978,15.7022901 46.5403287,15.7022901 C49.3378348,15.7022901 52.0717613,16.0267176 54.8056877,16.610687 L55.6958032,12.3931298 C52.7075581,11.7442748 49.6557333,11.4198473 46.5403287,11.4198473 Z" id="XMLID_2799_"></path>
                    <path d="M83.4165455,25.889313 C85.2603563,25.629771 86.5955297,23.9427481 86.341211,22.0610687 C86.0868922,20.1793893 84.4338204,18.8167939 82.5900096,19.0763359 C80.8733581,19.2709924 79.6017645,20.8282443 79.6017645,22.5152672 L77.2493161,24.5916031 C74.8968678,22.1259542 72.2901008,19.9847328 69.3654353,18.1030534 L67.1401464,21.7366412 C73.4981148,25.8244275 78.3937505,31.5992366 81.4455753,38.4122137 L85.323936,36.6603053 C83.925183,33.480916 82.1449518,30.5610687 80.0468222,27.8358779 L82.2721112,25.8244275 C82.717169,25.9541985 83.0350674,25.9541985 83.4165455,25.889313 Z" id="XMLID_2798_"></path>
                    <path d="M43.4885039,69.5572519 C41.3267946,69.6870229 39.1650854,69.7519084 37.0033761,69.7519084 C32.1077405,69.7519084 27.3392642,69.4274809 23.143005,68.7137405 C20.9812957,68.389313 18.4381084,67.8053435 16.0220804,67.0267176 C21.8714113,77.6030534 33.1885951,84.8053435 46.095271,84.8053435 C62.0537717,84.8053435 75.469085,73.9045802 79.3474457,59.110687 C75.5326647,61.6412214 70.9549274,63.7824427 65.614234,65.5343511 C59.1291062,67.740458 51.4359644,69.1030534 43.4885039,69.5572519 Z" id="XMLID_2797_"></path>
                    <path d="M46.5403287,20.0496183 C27.8479016,20.0496183 12.5887774,35.2328244 12.5887774,53.9198473 C12.5887774,56.3206107 12.8430962,58.7862595 13.3517337,61.1221374 C17.102935,63.8473282 28.4836985,66.1832061 43.2341852,65.2748092 C59.3198452,64.3015267 72.7987383,59.8244275 80.49188,52.9465649 C80.49188,51.8435115 80.3647207,50.740458 80.2375613,49.6374046 C78.1394317,32.7671756 63.6432638,20.0496183 46.5403287,20.0496183 Z M34.5237685,57.1641221 C28.8015969,57.1641221 24.2238596,52.4274809 24.2238596,46.6526718 C24.2238596,40.8129771 28.8651766,36.1412214 34.5237685,36.1412214 C40.24594,36.1412214 44.8236773,40.8778626 44.8236773,46.6526718 C44.8236773,52.4274809 40.1823603,57.1641221 34.5237685,57.1641221 Z M60.972917,51.9732824 C56.7766579,51.9732824 53.4069346,48.4694656 53.4069346,44.2519084 C53.4069346,39.9694656 56.8402376,36.5305344 60.972917,36.5305344 C65.1691762,36.5305344 68.5388994,40.0343511 68.5388994,44.2519084 C68.5388994,48.5343511 65.1691762,51.9732824 60.972917,51.9732824 Z" id="XMLID_2793_"></path>
                </g>
            </g>
            <g id="XMLID_2488_" transform="translate(359.949728, 38.452381)">
                <path d="M34.9491504,6.84722222 L30.9732838,11.0859788 C28.0234472,8.15145503 24.4964687,6.45595238 20.2640946,6.45595238 C12.3764881,6.45595238 6.41268815,12.7162698 6.41268815,21.3242063 C6.41268815,29.9973545 12.3764881,36.1924603 20.2640946,36.1924603 C24.5605956,36.1924603 28.3440816,34.2361111 31.1015375,31.4972222 L34.9491504,35.8011905 C31.3580451,39.9095238 26.2278945,42.0615079 20.3923483,42.0615079 C8.3364946,42.0615079 0.0641268815,33.1275132 0.0641268815,21.2589947 C0.0641268815,9.45568783 8.3364946,0.521693122 20.3923483,0.521693122 C26.1637677,0.586904762 31.4221719,2.80410053 34.9491504,6.84722222 Z" id="XMLID_2787_"></path>
                <path d="M78.6195567,21.3242063 C78.6195567,33.1927249 69.7700471,42.1267196 57.906574,42.1267196 C46.0431009,42.1267196 37.2577182,33.1927249 37.2577182,21.3242063 C37.2577182,9.52089947 46.1072278,0.586904762 57.906574,0.586904762 C69.7059202,0.586904762 78.6195567,9.52089947 78.6195567,21.3242063 Z M43.6062794,21.3242063 C43.6062794,29.9973545 49.76246,36.1924603 57.9707009,36.1924603 C66.1148148,36.1924603 72.3351223,29.9321429 72.3351223,21.3242063 C72.3351223,12.7162698 66.1148148,6.45595238 57.9707009,6.45595238 C49.76246,6.52116402 43.6062794,12.7162698 43.6062794,21.3242063 Z" id="XMLID_2784_"></path>
                <path d="M148.902619,16.5637566 L148.902619,41.3441799 L142.746438,41.3441799 L142.746438,18.6505291 C142.746438,11.0859788 138.578191,6.58637566 131.39598,6.58637566 C124.790911,6.58637566 119.340126,11.2164021 119.340126,18.846164 L119.340126,41.3441799 L113.183946,41.3441799 L113.183946,18.6505291 C113.183946,11.0859788 109.015699,6.58637566 101.833488,6.58637566 C95.228419,6.58637566 89.7776341,11.2164021 89.7776341,18.846164 L89.7776341,41.3441799 L83.5573266,41.3441799 L83.5573266,1.36944444 L89.7135072,1.36944444 L89.7135072,7.04285714 C92.9198513,2.28240741 98.1141287,0.521693122 102.923645,0.521693122 C109.785221,0.521693122 115.107752,3.71706349 117.672828,8.93399471 C120.815045,2.73888889 126.971225,0.521693122 132.486137,0.521693122 C142.233423,0.586904762 148.902619,6.91243386 148.902619,16.5637566 Z" id="XMLID_2779_"></path>
                <path d="M195.715242,21.3242063 C195.715242,33.3231481 187.12224,42.1267196 176.092417,42.1267196 C169.615602,42.1267196 164.870212,39.4530423 161.792122,35.4099206 L161.792122,58.1687831 L155.571815,58.1687831 L155.571815,1.36944444 L161.792122,1.36944444 L161.792122,7.3037037 C164.870212,3.26058201 169.615602,0.586904762 176.092417,0.586904762 C187.12224,0.586904762 195.715242,9.39047619 195.715242,21.3242063 Z M161.407361,21.3242063 C161.407361,29.8017196 167.17878,36.1924603 175.387021,36.1924603 C183.787642,36.1924603 189.430808,29.540873 189.430808,21.3242063 C189.430808,13.1075397 183.723515,6.45595238 175.387021,6.45595238 C167.17878,6.52116402 161.407361,12.9119048 161.407361,21.3242063 Z" id="XMLID_2755_"></path>
                <path d="M239.898664,41.3441799 L233.742483,41.3441799 L233.742483,35.4099206 C230.600266,39.518254 225.854877,42.1267196 219.378062,42.1267196 C208.348238,42.1267196 199.755236,33.3231481 199.755236,21.3242063 C199.755236,9.32526455 208.348238,0.586904762 219.378062,0.586904762 C225.854877,0.586904762 230.600266,3.26058201 233.742483,7.3037037 L233.742483,1.36944444 L239.898664,1.36944444 L239.898664,41.3441799 Z M206.03967,21.3242063 C206.03967,29.6060847 211.746963,36.1924603 220.083457,36.1924603 C228.227571,36.1924603 234.063117,29.8017196 234.063117,21.3242063 C234.063117,12.9119048 228.291698,6.52116402 220.083457,6.52116402 C211.682836,6.52116402 206.03967,13.1075397 206.03967,21.3242063 Z" id="XMLID_2748_"></path>
                <path d="M282.799547,16.5637566 L282.799547,41.3441799 L276.643367,41.3441799 L276.643367,18.6505291 C276.643367,11.0859788 272.475119,6.58637566 265.292909,6.58637566 C258.68784,6.58637566 253.237055,11.2164021 253.237055,18.846164 L253.237055,41.3441799 L247.016748,41.3441799 L247.016748,1.36944444 L253.172928,1.36944444 L253.172928,7.04285714 C256.379272,2.28240741 261.57355,0.521693122 266.383066,0.521693122 C276.130352,0.586904762 282.799547,6.91243386 282.799547,16.5637566 Z" id="XMLID_2685_"></path>
                <polygon id="XMLID_2545_" points="293.44461 58.364418 286.583033 58.364418 301.203962 32.6710317 283.184309 1.36944444 290.110012 1.36944444 304.730941 26.4107143 318.582347 1.36944444 325.379797 1.36944444"></polygon>
            </g>
            <g id="XMLID_1083_" transform="translate(106.577294, 18.214286)">
                <g id="XMLID_1323_">
                    <path d="M31.2236737,11.8392857 C29.5601173,11.1923302 26.6808851,10.0925059 23.4817382,10.4806792 C20.4105572,10.8688525 18.7470008,12.4215457 18.7470008,16.1738876 L18.7470008,21.0907494 L31.2876566,21.0907494 L31.2876566,30.8597775 L18.7470008,30.8597775 L18.7470008,61.8489461 L7.86990136,61.8489461 L7.86990136,30.8597775 L0.319914689,30.8597775 L0.319914689,21.0907494 L7.86990136,21.0907494 L7.86990136,16.0444965 C7.86990136,6.46955504 12.9245535,0.258782201 22.3300453,0.258782201 C25.9130898,0.258782201 28.856305,0.970433255 31.2876566,2.00556206 L31.2236737,11.8392857 Z" id="XMLID_1840_"></path>
                    <path d="M57.648627,30.7303864 C56.6249,30.5362998 55.665156,30.4716042 54.7054119,30.4716042 C49.6507598,30.4716042 46.1956812,33.5769906 46.1956812,39.6583724 L46.1956812,61.8489461 L35.3185817,61.8489461 L35.3185817,21.0907494 L45.8117835,21.0907494 L45.8117835,25.5547424 C48.371101,21.7377049 52.2100773,19.9909251 57.1367635,19.9909251 C59.4401493,19.9909251 61.8715009,20.7025761 63.2791256,21.9317916 L57.648627,30.7303864 Z" id="XMLID_1838_"></path>
                    <path d="M100.709144,41.4051522 C100.709144,42.6343677 100.645161,44.1870609 100.517195,45.0927986 L71.9168222,45.0927986 C73.0685151,50.9800937 77.1634231,53.5679157 82.2820581,53.5679157 C85.8011197,53.5679157 89.576113,52.1446136 92.4553452,49.6861827 L98.7896561,56.7379977 C94.1828846,61.007904 88.3604372,62.9487705 81.6422287,62.9487705 C69.2935217,62.9487705 60.7198081,54.4736534 60.7198081,41.5992389 C60.7198081,28.7895199 69.03759,20.0556206 81.1303652,20.0556206 C92.711277,19.9909251 100.709144,28.7248244 100.709144,41.4051522 Z M71.9808051,37.6528103 L89.8320448,37.6528103 C88.8083178,32.4124707 85.7371368,29.501171 81.0663823,29.501171 C75.9477473,29.501171 72.9405492,32.6065574 71.9808051,37.6528103 Z" id="XMLID_1828_"></path>
                    <path d="M143.705678,41.4051522 C143.705678,42.6343677 143.641696,44.1870609 143.51373,45.0927986 L114.913356,45.0927986 C116.065049,50.9800937 120.159957,53.5679157 125.278592,53.5679157 C128.797654,53.5679157 132.572647,52.1446136 135.451879,49.6861827 L141.78619,56.7379977 C137.179419,61.007904 131.356971,62.9487705 124.638763,62.9487705 C112.290056,62.9487705 103.716342,54.4736534 103.716342,41.5992389 C103.716342,28.7895199 112.034124,20.0556206 124.126899,20.0556206 C135.771794,19.9909251 143.705678,28.7248244 143.705678,41.4051522 Z M114.977339,37.6528103 L132.828579,37.6528103 C131.804852,32.4124707 128.733671,29.501171 124.062917,29.501171 C118.944282,29.501171 115.937083,32.6065574 114.977339,37.6528103 Z" id="XMLID_1823_"></path>
                    <path d="M190.605172,41.4698478 C190.605172,53.6973068 182.223407,62.9487705 171.090376,62.9487705 C165.651826,62.9487705 161.876833,60.8138173 159.253532,57.6437354 L159.253532,78.7344848 L148.440416,78.7344848 L148.440416,21.155445 L159.061584,21.155445 L159.061584,25.6841335 C161.684884,22.3846604 165.52386,20.1203162 171.090376,20.1203162 C182.223407,19.9909251 190.605172,29.2423888 190.605172,41.4698478 Z M158.741669,41.4698478 C158.741669,47.8747073 162.964543,52.7268735 169.106905,52.7268735 C175.505199,52.7268735 179.536124,47.7453162 179.536124,41.4698478 C179.536124,35.1943794 175.569182,30.212822 169.106905,30.212822 C162.90056,30.212822 158.741669,35.0649883 158.741669,41.4698478 Z" id="XMLID_1819_"></path>
                    <path d="M208.072514,7.76346604 C208.072514,11.7098946 205.065316,14.7505855 201.098374,14.7505855 C197.195415,14.7505855 194.188216,11.7098946 194.188216,7.76346604 C194.188216,3.81703747 197.195415,0.711651054 201.098374,0.711651054 C205.001333,0.711651054 208.072514,3.81703747 208.072514,7.76346604 Z M206.600906,61.8489461 L195.723807,61.8489461 L195.723807,21.0907494 L206.600906,21.0907494 L206.600906,61.8489461 Z" id="XMLID_1743_"></path>
                    <polygon id="XMLID_1366_" points="224.708078 35.6472482 239.936017 21.0907494 253.244468 21.0907494 233.665689 40.2406323 253.308451 61.7842506 239.936017 61.7842506 224.644095 45.2868852 224.644095 61.7842506 213.766995 61.7842506 213.766995 1.29391101 224.644095 1.29391101 224.644095 35.6472482"></polygon>
                </g>
            </g>
        </g>
    </g>
</svg>