<svg xmlns="http://www.w3.org/2000/svg" viewBox="0 0 260.11071 27.738">
  <defs>
    <style>
      .a7e9d7f0-e0c2-42ad-9046-3d576346fbd9 {
        fill: #fff;
      }

      .\36 32a65df-82e0-46bc-b94b-4872bea5b956 {
        fill: #2196ba;
      }

      .dc934ce0-83af-4f75-80f4-fd65f63c9c51 {
        fill: #008eae;
      }
    </style>
  </defs>
  <title>logo_sin_fondo</title>
  <g id="bd9019a5-96fa-4903-ba84-d1656d737594" data-name="Capa 1">
    <g>
      <path class="a7e9d7f0-e0c2-42ad-9046-3d576346fbd9" d="M6.40137,31.64844V15.53564H9.624V21.981h7.50879V15.5249h3.22266V31.63867l-3.22266.00977V24.98828H9.624v6.66016Z" transform="translate(-6.40137 -10.98752)"/>
      <path class="a7e9d7f0-e0c2-42ad-9046-3d576346fbd9" d="M22.9873,31.64844l6.44532-16.1128h3.22265l6.43457,16.103-3.42675.00977-.9668-2.47071H27.3916l-.9668,2.47071Zm8.14258-11.81592-2.44922,6.12256h4.834Z" transform="translate(-6.40137 -10.98752)"/>
      <path class="a7e9d7f0-e0c2-42ad-9046-3d576346fbd9" d="M42.58643,29.334a7.8127,7.8127,0,0,1-2.315-5.77392,7.916,7.916,0,0,1,8.0459-8.02442,8.719,8.719,0,0,1,5.919,2.14844l-2.14844,2.35254a5.94114,5.94114,0,0,0-3.77051-1.28906,4.73191,4.73191,0,0,0-3.49658,1.35351,4.68419,4.68419,0,0,0-1.32666,3.4375,4.83149,4.83149,0,0,0,1.34277,3.5669,4.75481,4.75481,0,0,0,3.502,1.32031,5.77763,5.77763,0,0,0,3.749-1.27734L54.23633,29.5a8.68658,8.68658,0,0,1-5.919,2.14844A7.83353,7.83353,0,0,1,42.58643,29.334Z" transform="translate(-6.40137 -10.98752)"/>
      <path class="a7e9d7f0-e0c2-42ad-9046-3d576346fbd9" d="M57.73828,15.53564h3.22266V21.981L66.332,15.53564h3.62012l-6.30567,7.51954,7.627,8.59326H67.084l-6.123-6.96094v6.96094H57.73828Z" transform="translate(-6.40137 -10.98752)"/>
      <path class="a7e9d7f0-e0c2-42ad-9046-3d576346fbd9" d="M73.1748,31.64844v-16.102l11.8379-.01075v3.00782H76.39746V21.981h6.45606v2.99756H76.39746v3.66211h8.59375v3.00781Z" transform="translate(-6.40137 -10.98752)"/>
      <path class="a7e9d7f0-e0c2-42ad-9046-3d576346fbd9" d="M97.957,24.62305l4.01758,7.02539H98.2793l-3.85645-6.66016H91.47949v6.66016H88.25684V15.53564h7.02539q5.63964,0,5.63965,4.64063Q100.92188,23.66773,97.957,24.62305ZM91.47949,21.981h4.51172q1.94385-.03224,1.99805-1.77246-.05419-1.58936-1.96582-1.6543H91.47949Z" transform="translate(-6.40137 -10.98752)"/>
      <path class="a7e9d7f0-e0c2-42ad-9046-3d576346fbd9" d="M112.37305,16.07275a7.52025,7.52025,0,0,1,2.30957,1.61133l-2.14844,2.14844a3.69957,3.69957,0,0,0-3.00781-1.28906q-1.9336,0-2.47071.91308a1.25607,1.25607,0,0,0,0,1.55762,4.24524,4.24524,0,0,0,2.47071.9668,8.00414,8.00414,0,0,1,3.70605,1.34277,4.03457,4.03457,0,0,1,1.665,3.59815,4.13034,4.13034,0,0,1-1.77783,3.33007,6.50814,6.50814,0,0,1-4.14111,1.39649,9.54158,9.54158,0,0,1-3.749-.64453,8.10973,8.10973,0,0,1-2.57812-1.71875l2.14843-2.14844a5.103,5.103,0,0,0,3.65235,1.50391q2.1482,0,2.68017-.91211a1.70084,1.70084,0,0,0,0-1.82618q-.53174-.91405-2.68017-1.1289a8.66149,8.66149,0,0,1-3.54492-1.18115,3.56505,3.56505,0,0,1-1.61133-3.33008,4.01058,4.01058,0,0,1,1.83154-3.43213,6.45159,6.45159,0,0,1,3.76514-1.29444A8.99449,8.99449,0,0,1,112.37305,16.07275Z" transform="translate(-6.40137 -10.98752)"/>
      <path class="632a65df-82e0-46bc-b94b-4872bea5b956" d="M134.67383,20.15479l-6.23047,3.4375,6.23047,3.437V29.5l-10.1836-5.59619v-.69824l10.1836-5.52149Z" transform="translate(-6.40137 -10.98752)"/>
      <path class="632a65df-82e0-46bc-b94b-4872bea5b956" d="M137.38086,17.68408l10.18359,5.52149v.69824L137.38086,29.5V27.0293l6.23047-3.437-6.23047-3.4375Z" transform="translate(-6.40137 -10.98752)"/>
      <path class="a7e9d7f0-e0c2-42ad-9046-3d576346fbd9" d="M167.34082,19.83252l-3.22266,11.81592h-3.22265l-4.30762-16.1128h3.4375l2.80371,10.95655,2.90039-10.95655h3.33008l2.793,10.95655,2.793-10.95655h3.4375l-4.29688,16.1128h-3.22265Z" transform="translate(-6.40137 -10.98752)"/>
      <path class="a7e9d7f0-e0c2-42ad-9046-3d576346fbd9" d="M180.4248,31.64844v-16.102l11.8379-.01075v3.00782h-8.61524V21.981h6.45606v2.99756h-6.45606v3.66211h8.59375v3.00781Z" transform="translate(-6.40137 -10.98752)"/>
      <path class="a7e9d7f0-e0c2-42ad-9046-3d576346fbd9" d="M195.46387,31.64844v-16.102l11.83789-.01075v3.00782h-8.61524V21.981h6.45606v2.99756h-6.45606v3.66211h8.59375v3.00781Z" transform="translate(-6.40137 -10.98752)"/>
      <path class="a7e9d7f0-e0c2-42ad-9046-3d576346fbd9" d="M210.57813,15.53564h3.22265V21.981l5.3711-6.44532H222.792l-6.30566,7.51954,7.62695,8.59326h-4.18945l-6.12305-6.96094v6.96094h-3.22265Z" transform="translate(-6.40137 -10.98752)"/>
    </g>
  </g>
  <g id="d64df44c-26f7-4598-9e7b-175848a05fe5" data-name="Capa 2">
    <polygon class="a7e9d7f0-e0c2-42ad-9046-3d576346fbd9" points="252.96 8.615 260.111 8.615 260.111 12.779 250.194 12.779 252.96 8.615"/>
    <polygon class="a7e9d7f0-e0c2-42ad-9046-3d576346fbd9" points="248.795 14.885 260.111 14.885 260.111 19.104 245.992 19.104 248.795 14.885"/>
    <polygon class="dc934ce0-83af-4f75-80f4-fd65f63c9c51" points="258.018 0 239.589 27.738 232.697 27.738 247.616 5.282 248.075 4.593 230.779 4.593 227.728 0 258.018 0"/>
    <polygon class="a7e9d7f0-e0c2-42ad-9046-3d576346fbd9" points="231.237 5.282 246.798 5.282 231.879 27.738 226.294 27.738 238.703 9.062 233.748 9.062 231.237 5.282"/>
  </g>
</svg>
